<svg width="1483" height="490" viewBox="0 0 1483 490" fill="none" xmlns="http://www.w3.org/2000/svg">
<rect width="1483" height="490" rx="245" fill="#33BFFF"/>
<path d="M251.78 446.56C140.52 446.56 50 356.04 50 244.78C50 133.52 140.52 43 251.78 43C363.04 43 453.56 133.52 453.56 244.78C453.56 356.04 363.04 446.56 251.78 446.56Z" fill="white"/>
<path d="M333.612 237.448L211.772 167.108C207.382 164.578 201.262 166.378 199.352 172.518V316.728C200.702 321.078 204.172 323.248 207.632 323.248C209.062 323.248 210.492 322.878 211.772 322.138L333.612 251.798C336.172 250.318 337.752 247.588 337.752 244.628C337.752 241.668 336.172 238.938 333.612 237.458V237.448Z" fill="#33BFFF"/>
<path d="M638.949 328.669C627.819 328.669 618.789 319.639 618.789 308.509V182.199C618.789 171.069 627.819 162.039 638.949 162.039C650.079 162.039 659.109 171.069 659.109 182.199V308.509C659.109 319.639 650.079 328.669 638.949 328.669Z" fill="white"/>
<path d="M699.449 355.511C688.319 355.511 679.289 346.481 679.289 335.351V155.371C679.289 144.241 688.319 135.211 699.449 135.211C710.579 135.211 719.609 144.241 719.609 155.371V335.351C719.609 346.481 710.579 355.511 699.449 355.511Z" fill="white"/>
<path d="M1238.77 328.669C1227.64 328.669 1218.61 319.639 1218.61 308.509V182.199C1218.61 171.069 1227.64 162.039 1238.77 162.039C1249.9 162.039 1258.93 171.069 1258.93 182.199V308.509C1258.93 319.639 1249.9 328.669 1238.77 328.669Z" fill="white"/>
<path d="M1178.27 355.511C1167.14 355.511 1158.11 346.481 1158.11 335.351V155.371C1158.11 144.241 1167.14 135.211 1178.27 135.211C1189.4 135.211 1198.43 144.241 1198.43 155.371V335.351C1198.43 346.481 1189.4 355.511 1178.27 355.511Z" fill="white"/>
<path d="M938 355.511C926.87 355.511 917.84 346.481 917.84 335.351V155.371C917.84 144.241 926.87 135.211 938 135.211C949.13 135.211 958.16 144.241 958.16 155.371V335.351C958.16 346.481 949.13 355.511 938 355.511Z" fill="white"/>
<path d="M998.49 367.7C987.36 367.7 978.33 358.67 978.33 347.54V143.16C978.33 132.03 987.36 123 998.49 123C1009.62 123 1018.65 132.03 1018.65 143.16V347.54C1018.65 358.67 1009.62 367.7 998.49 367.7Z" fill="white"/>
<path d="M877.5 336.641C866.37 336.641 857.34 327.611 857.34 316.481V174.221C857.34 163.091 866.37 154.061 877.5 154.061C888.63 154.061 897.66 163.091 897.66 174.221V316.481C897.66 327.611 888.63 336.641 877.5 336.641Z" fill="white"/>
<path d="M1058.99 336.641C1047.86 336.641 1038.83 327.611 1038.83 316.481V174.221C1038.83 163.091 1047.86 154.061 1058.99 154.061C1070.12 154.061 1079.15 163.091 1079.15 174.221V316.481C1079.15 327.611 1070.12 336.641 1058.99 336.641Z" fill="white"/>
<path d="M579.31 264.659C589.975 264.659 598.62 256.014 598.62 245.349C598.62 234.684 589.975 226.039 579.31 226.039C568.645 226.039 560 234.684 560 245.349C560 256.014 568.645 264.659 579.31 264.659Z" fill="white"/>
<path d="M759.089 264.659C769.754 264.659 778.399 256.014 778.399 245.349C778.399 234.684 769.754 226.039 759.089 226.039C748.425 226.039 739.779 234.684 739.779 245.349C739.779 256.014 748.425 264.659 759.089 264.659Z" fill="white"/>
<path d="M1118.63 264.659C1129.29 264.659 1137.94 256.014 1137.94 245.349C1137.94 234.684 1129.29 226.039 1118.63 226.039C1107.97 226.039 1099.32 234.684 1099.32 245.349C1099.32 256.014 1107.97 264.659 1118.63 264.659Z" fill="white"/>
<path d="M817.861 264.659C828.525 264.659 837.171 256.014 837.171 245.349C837.171 234.684 828.525 226.039 817.861 226.039C807.196 226.039 798.551 234.684 798.551 245.349C798.551 256.014 807.196 264.659 817.861 264.659Z" fill="white"/>
<path d="M1298.4 264.659C1309.06 264.659 1317.71 256.014 1317.71 245.349C1317.71 234.684 1309.06 226.039 1298.4 226.039C1287.74 226.039 1279.09 234.684 1279.09 245.349C1279.09 256.014 1287.74 264.659 1298.4 264.659Z" fill="white"/>
<path d="M1357.18 264.659C1367.84 264.659 1376.49 256.014 1376.49 245.349C1376.49 234.684 1367.84 226.039 1357.18 226.039C1346.51 226.039 1337.87 234.684 1337.87 245.349C1337.87 256.014 1346.51 264.659 1357.18 264.659Z" fill="white"/>
</svg>
